<svg version="1.2" xmlns="http://www.w3.org/2000/svg" viewBox="0 0 238 131" width="238" height="131">
	<title>work-scribble-svg</title>
	<style>
		tspan { white-space:pre } 
		.s0 { fill: #5a5a5a } 
		.t1 { font-size: 16px;fill: #ffffff;font-weight: 700;font-family: "DMSans-Bold", "DM Sans" } 
	</style>
	<path class="s0" d="m25.8 105q1.2-3.8 2.7-7.4 1.5-3.7 3.4-7.1 2.1-3.6 4.7-7c2.3-2.9 4.9-5.6 7.9-7.8q2.3-1.7 4.9-3 1.3-0.6 2.7-1.1 1.5-0.4 3.1-0.4 0.8 0 1.6 0.3 1 0.3 1.6 1c0.5 0.5 0.8 1.1 1 1.8q0.2 0.9 0 1.8-0.1 0.8-0.5 1.6-0.4 0.7-0.9 1.3-0.8 1.2-1.9 2.2-2.1 2-4.7 3.4-2.5 1.4-5.4 2c-2.4 0.5-4.8 0.5-7.2 0.1q-0.5-0.1-0.9-0.3-0.5-0.2-1-0.4-0.9-0.5-1.6-1.3-0.7-0.8-1.1-1.8-0.3-0.9-0.4-1.9-0.1-1.9 0.4-3.7 0.3-0.9 0.6-1.7 0.2-0.4 0.3-0.8 0.2-0.4 0.4-0.8 1.4-3.1 3.3-6.1c4.9-7.7 11.7-14.1 19.8-18.5q0.4-0.3 0.9-0.5 0.4-0.2 0.9-0.5 0.9-0.4 1.9-0.8 1.8-0.9 3.8-1.5 1.5-0.6 3.1-0.9 0.6-0.1 1.1-0.2 0.6-0.1 0.9-0.1c0.8-0.1 0.8 0.1 0.3 0.4q-0.3 0.1-0.6 0.2-0.3 0.2-0.8 0.3-0.4 0.2-1 0.4-0.5 0.2-1.1 0.4-3.4 1.3-6.5 2.9c-4.9 2.4-9.3 5.6-13.2 9.4-3.8 3.7-7.1 8.1-9.5 12.9q-0.3 0.5-0.5 1-0.2 0.5-0.5 1-0.2 0.5-0.4 1-0.3 0.6-0.5 1.1-0.7 1.9-0.9 4c-0.1 1 0 2 0.5 2.8q0.3 0.6 0.9 1 0.3 0.2 0.6 0.4 0.3 0.1 0.6 0.3 0.4 0.1 0.8 0.1l0.8 0.2q0.4 0 0.8 0.1 0.4 0 0.8 0 1.7 0 3.3-0.3c2.2-0.4 4.3-1.2 6.2-2.4q1.4-0.9 2.7-2 1.2-1.1 2.2-2.4l0.2-0.2 0.1-0.1 0.1-0.1q0.1-0.3 0.3-0.5 0.2-0.5 0.3-1 0.1-0.4 0-0.9 0-0.2-0.1-0.4 0-0.2-0.2-0.3-0.1-0.2-0.2-0.3-0.2-0.2-0.4-0.2-0.4-0.2-0.9-0.3-0.6 0-1.1 0-0.6 0.1-1.2 0.2-1.2 0.3-2.3 0.8-0.5 0.3-1.1 0.6-0.6 0.3-1.1 0.6-2.2 1.2-4.2 2.8-3.6 2.9-6.4 6.5-2.8 3.7-5 7.7-1 2.1-2 4.2-0.4 1-0.9 2.1l-0.4 1.1-0.4 1.1q-0.4 1.1-0.7 2.2-0.4 1.1-0.7 2.2-0.7 2.2-1.3 4.4c-1.3 4.8-2.3 9.4-3.6 13.4-0.6 1.8-1.1 1.6-0.8-0.6 0.4-3.1 0.9-6.4 1.6-9.7 0.5-2.6 1.3-5.3 2.1-8q-0.1 0-0.1 0z"/>
	<path class="s0" d="m33 110.3q-1.7 1.7-3.2 3.7-0.3 0.5-0.7 1.1-0.3 0.5-0.7 1.1c-0.9 1.6-1.7 3.4-2.4 5.1l-1.2 2.7q-0.5 1.3-1.1 2.6c-0.2 0.3-0.4 0.6-0.7 0.7-0.3 0.1-0.7 0.1-1-0.1q-0.3-0.1-0.5-0.3-0.1-0.3-0.2-0.6l-0.4-2.7q-0.6-4.4-1.3-8.7-0.6-4.4-1.1-8.8-0.1-1.3-0.1-2.7c0-0.8 0.2-1.4 0.5-1.7 0.5-0.6 1-0.1 1.3 1.1q0.2 1.1 0.3 2.3 0.4 5.3 1.6 10.5c0.2 1 0.4 2 0.5 2.9 0.2 2.5 0.7 5 1.1 7.4l-2.2-0.3q0.4-0.8 0.8-1.5c0.9-2.1 1.8-4.2 2.9-6.3q1.4-2.7 3.3-5.3 1.8-2.5 4.1-4.7 0.4-0.4 0.9-0.8 0.5-0.4 0.9-0.7 1-0.6 2-1c0.3-0.1 0.6-0.1 0.7 0.1 0.1 0.1 0 0.4-0.2 0.7q-0.5 0.6-1 1.2-0.5 0.6-1.1 1.1-0.4 0.5-0.9 1l-0.2 0.2-0.2 0.2q-0.3 0.3-0.5 0.5z"/>
	<text id="Services" style="transform: matrix(.988,-0.153,.153,.988,78.492,20.621)" >
		<tspan x="0" y="11.5" class="t1">Services
</tspan>
	</text>
</svg>